<svg width="88" height="79" viewBox="0 0 88 79" fill="none" xmlns="http://www.w3.org/2000/svg">
<path fill-rule="evenodd" clip-rule="evenodd" d="M62.2961 26.5796C50.2063 12.1576 30.5091 1.99948 0.000181686 1.9994L0.000187499 -0.000604032C30.9911 -0.000514107 51.2938 10.3417 63.8288 25.2947C75.7829 39.5548 80.5716 57.8875 80.9722 75.1128L85.6567 70.4283C86.0473 70.0377 86.6804 70.0377 87.071 70.4283C87.4615 70.8188 87.4615 71.452 87.071 71.8425L80.707 78.2064C80.3165 78.597 79.6833 78.597 79.2928 78.2064L72.9288 71.8425C72.5383 71.4519 72.5383 70.8188 72.9288 70.4283C73.3193 70.0377 73.9525 70.0377 74.343 70.4283L78.9703 75.0555C78.5605 58.1719 73.8538 40.3668 62.2961 26.5796Z" fill="#086D69"/>
</svg>
